<svg version="1.1" xmlns="http://www.w3.org/2000/svg" xmlns:xlink="http://www.w3.org/1999/xlink" width="48" height="48"><defs><linearGradient x1="9.15028" y1="9.49052" x2="53.69894" y2="53.35872" gradientUnits="userSpaceOnUse" id="color-1"><stop offset="0.25" stop-color="#000000" stop-opacity="0.41"></stop><stop offset="1" stop-color="#000000" stop-opacity="0"></stop></linearGradient><filter id="dropshadow-base"><feColorMatrix type="matrix" values="0 0 0 0 0  0 0 0 0 0  0 0 0 0 0  0 0 0 .8 0"></feColorMatrix> <feOffset dx="0" dy="1"></feOffset> <feGaussianBlur stdDeviation="1"></feGaussianBlur> <feComposite in="SourceGraphic"></feComposite></filter><filter id="dropshadow-banner" x="-10%" y="-10%" width="120%" height="130%"><feColorMatrix type="matrix" values="0 0 0 0 0  0 0 0 0 0  0 0 0 0 0  0 0 0 .4 0"></feColorMatrix> <feOffset dx="0" dy="1"></feOffset> <feGaussianBlur stdDeviation="0.5"></feGaussianBlur> <feComposite in="SourceGraphic"></feComposite></filter></defs><g fill="none" fill-rule="nonzero" stroke="none" stroke-width="none" stroke-linecap="butt" stroke-linejoin="miter" stroke-miterlimit="10" stroke-dasharray="" stroke-dashoffset="0" font-family="none" font-weight="none" font-size="none" text-anchor="none" style="mix-blend-mode: normal"><path d="M2,24c0,-12.15026 9.84974,-22 22,-22c12.15026,0 22,9.84974 22,22c0,12.15026 -9.84974,22 -22,22c-12.15026,0 -22,-9.84974 -22,-22z" id="base 1 6" fill="#f44336" stroke-width="1"></path><path d="M14.07351,10.76336c0.18708,-0.10349 0.56419,-0.08427 0.68251,0.03405l0.00319,0.00319c0.00071,0.0007 0.00142,0.0014 0.00213,0.0021l2.8686,2.8686c0.74274,-1.52582 0.82422,-2.93656 0.20205,-3.9006c-0.08405,-0.13209 -0.1561,-0.25216 -0.1561,-0.26017c0,-0.01201 4.76311,-0.02002 10.5869,-0.02002h10.58692l4.98948,4.98948c1.38491,2.88084 2.16082,6.10981 2.16082,9.52c0,12.15026 -9.84974,22 -22,22c-3.41019,0 -6.63916,-0.77591 -9.52,-2.16082l-5.3297,-5.3297v-16.13053h2.62165l-2.60174,-2.60174c-0.01196,-0.01196 -0.01992,-2.3208 -0.01992,-5.14331l0.00001,-5.14337h2.40957l2.05457,2.05457c0.12739,-0.48621 0.25145,-0.66848 0.45907,-0.78172z" fill="url(#color-1)" stroke-width="1"></path><path d="M9.1503,9.49052h2.40957l-0.20814,0.22815c-0.66043,0.72047 -0.98464,1.537 -1.26082,3.18208c-0.10407,0.6084 -0.26417,0.55636 1.58904,0.54436l1.56903,-0.01201l0.16811,-0.94061c0.22415,-1.24081 0.34823,-1.56102 0.65643,-1.72913c0.18812,-0.10407 0.56837,-0.08405 0.68445,0.03602c0.12408,0.12008 0.16411,0.37625 0.12008,0.71647c-0.12408,0.86857 -0.68445,1.78917 -2.70177,4.41889c-1.00065,1.30886 -2.98595,3.84251 -3.00596,3.84251c-0.01201,0 -0.02001,-2.31351 -0.02001,-5.14336zM28.26278,9.49052h10.58692v0.20013h-5.34349l-4.85117,9.35811l-4.84717,9.35411l-0.43629,2.41758c-0.40426,2.22545 -0.43228,2.42158 -0.37625,2.48963c0.06404,0.07605 0.18812,0.07605 4.31082,0.08806l4.24277,0.00801l-0.43228,2.40157c-0.34022,1.86122 -0.42828,2.42158 -0.39626,2.48963l0.04403,0.09206h7.39683l0.06404,-0.37224c0.03602,-0.20013 0.19213,-1.04468 0.34422,-1.86922l0.27218,-1.50098l0.004,1.92926l0.004,1.93326h-29.6994v-16.13054h6.91652l0.02402,-0.11207c0.08405,-0.41227 0.38425,-2.18543 0.38425,-2.26548c0,-0.05203 -0.02402,-0.11608 -0.05203,-0.14009c-0.04003,-0.02802 -0.58438,-0.04803 -1.76916,-0.05203l-1.70912,-0.01201l0.67644,-0.80052c1.8292,-2.16541 3.10603,-3.78647 3.57033,-4.53496c1.13274,-1.82119 1.36889,-3.56233 0.64042,-4.69106c-0.08405,-0.13209 -0.1561,-0.25216 -0.1561,-0.26017c0,-0.01201 4.76311,-0.02001 10.58692,-0.02001zM22.85925,12.3724c-1.32487,0.21214 -2.23346,1.20479 -2.23746,2.46161c-0.004,0.42027 0.09606,0.72447 0.34823,1.05269c0.10407,0.14409 0.18812,0.26017 0.18012,0.26818c-0.00801,0.004 -0.14409,0.07605 -0.3082,0.16411c-0.43629,0.22415 -0.73248,0.51634 -0.9246,0.9126c-0.54035,1.09271 -0.27218,2.38156 0.57638,2.76981c0.65243,0.29619 1.54901,0.18412 2.52565,-0.32021c0.17612,-0.08806 0.33222,-0.16811 0.34422,-0.17612c0.01201,-0.004 0.06404,0.09606 0.11207,0.23215l0.08806,0.24016h1.04068c0.86056,0 1.03668,-0.00801 1.03668,-0.05604c0,-0.03202 -0.10807,-0.36824 -0.24016,-0.74849c-0.13209,-0.37625 -0.23615,-0.69245 -0.23215,-0.69645c0.00801,-0.004 0.12808,-0.07205 0.27218,-0.1521c0.42027,-0.23215 0.38825,-0.18012 0.52034,-0.90859c0.12008,-0.67244 0.14009,-0.84055 0.09606,-0.84055c-0.01601,0 -0.3122,0.16411 -0.66443,0.36424c-0.34823,0.20413 -0.64042,0.36024 -0.64842,0.35223c-0.01201,-0.00801 -0.12808,-0.3082 -0.26417,-0.66844l-0.24816,-0.64842l0.24816,-0.27218c0.50433,-0.54836 0.74048,-1.11273 0.74048,-1.76916c0,-0.34422 -0.01201,-0.40827 -0.12408,-0.64442c-0.21614,-0.44829 -0.51233,-0.70446 -1.00466,-0.86056c-0.24016,-0.07205 -0.9166,-0.10407 -1.23281,-0.05604zM19.06478,35.77169c-0.01201,0.01601 0.02001,0.08405 0.07205,0.1561c0.05604,0.06804 0.10007,0.1481 0.10007,0.16811c0,0.02402 -0.12408,0.36824 -0.28018,0.7685c-0.1521,0.40026 -0.28018,0.74449 -0.28018,0.7685c0,0.02402 0.16411,0.03602 0.42828,0.02802l0.42428,-0.01201l0.12408,-0.32821l0.12408,-0.33222h0.72047c0.39626,0 0.74048,-0.01601 0.7645,-0.03202c0.04403,-0.03202 0.17612,-0.36024 0.17612,-0.44029c0,-0.03602 -0.18412,-0.04803 -0.72447,-0.04803c-0.64442,0 -0.72047,-0.00801 -0.70046,-0.06404c0.01201,-0.03602 0.02402,-0.08005 0.02402,-0.10007c0,-0.02001 0.32421,-0.03602 0.75649,-0.03602h0.75649l0.08806,-0.21614c0.04803,-0.12008 0.07605,-0.24016 0.06004,-0.26017c-0.02802,-0.04803 -2.58969,-0.06404 -2.63372,-0.02001zM11.30771,36.06788c-0.88458,0 -1.11673,0.01201 -1.09271,0.04803c0.01601,0.02802 0.08806,0.12808 0.16411,0.22014c0.12808,0.1601 0.1521,0.17211 0.33622,0.17211c0.10807,0 0.19613,0.004 0.19613,0.00801c0,0.00801 -0.10007,0.26417 -0.21614,0.57237l-0.22014,0.56037l0.32421,0.01201c0.18012,0.00801 0.34422,0.004 0.37224,-0.004c0.02402,-0.01201 0.14009,-0.27218 0.25617,-0.58438l0.21614,-0.56437h0.63241l0.07605,-0.18412c0.04403,-0.10007 0.08005,-0.20013 0.08005,-0.22014c0,-0.02001 -0.46831,-0.03602 -1.12473,-0.03602zM22.90328,36.06788c-1.16476,0 -1.18477,0 -1.14475,0.07605c0.02001,0.04403 0.06004,0.09206 0.08005,0.10407c0.07205,0.04403 0.04403,0.1481 -0.20013,0.78051c-0.13209,0.34022 -0.24016,0.62041 -0.24016,0.62841c0,0.00801 0.4643,0.01201 1.03668,0.01201h1.03267l0.29219,-0.75249c0.1561,-0.41227 0.29619,-0.7725 0.3082,-0.80052c0.01601,-0.03602 -0.23215,-0.04803 -1.16476,-0.04803zM24.66043,36.06788c-0.48432,0 -0.50033,0.004 -0.4603,0.07605c0.02001,0.04403 0.06004,0.09206 0.08005,0.10407c0.07205,0.04403 0.04403,0.1481 -0.20013,0.78051c-0.13209,0.34022 -0.24016,0.62041 -0.24016,0.62841c0,0.00801 0.4643,0.01201 1.03668,0.01201h1.03267l0.29219,-0.75249c0.1561,-0.41227 0.29619,-0.7725 0.3082,-0.80052c0.01601,-0.04003 -0.06004,-0.04803 -0.34823,-0.04003l-0.37224,0.01201l-0.22014,0.56837l-0.22014,0.57237h-0.29219c-0.16411,0 -0.29619,-0.01601 -0.29619,-0.03602c0,-0.02001 0.09206,-0.27218 0.20013,-0.56037c0.11207,-0.28819 0.20013,-0.53235 0.20013,-0.54436c0,-0.01201 -0.22415,-0.02001 -0.50033,-0.02001zM27.78247,36.06788c-1.16076,0 -1.18077,0 -1.14075,0.07605c0.02001,0.04403 0.06004,0.09206 0.08005,0.10407c0.07205,0.04403 0.04403,0.1481 -0.20013,0.78051c-0.13209,0.34022 -0.24016,0.62441 -0.24016,0.62841c0,0.00801 0.16411,0.00801 0.36424,0.004l0.36024,-0.01201l0.10807,-0.26017l0.11207,-0.26017l0.18412,-0.01201l0.18812,-0.01201l0.08405,0.28018l0.08405,0.28419h0.35623c0.20013,0 0.36024,-0.01201 0.36024,-0.03202c0,-0.01601 -0.02802,-0.11608 -0.06004,-0.22415c-0.08005,-0.26818 -0.07605,-0.29619 0.04403,-0.3122c0.09606,-0.01201 0.12408,-0.06004 0.3002,-0.51233c0.10807,-0.27618 0.19613,-0.50433 0.19613,-0.51233c0,-0.004 -0.53235,-0.00801 -1.18077,-0.00801zM12.79268,36.38809h-0.39626l0.06404,0.11608c0.06404,0.10807 0.06004,0.12808 -0.12008,0.6124c-0.10407,0.27218 -0.18812,0.50833 -0.18812,0.52434c0,0.01601 0.51634,0.02402 1.14475,0.02001l1.14475,-0.01201l0.21614,-0.56037c0.12008,-0.3082 0.22815,-0.59239 0.24016,-0.63241c0.02001,-0.06404 -0.004,-0.07205 -0.26818,-0.06004l-0.29219,0.01201l-0.33622,0.88058l-0.1481,0.01201c-0.13209,0.01201 -0.1481,0.004 -0.12008,-0.06004c0.13609,-0.34422 0.3002,-0.78451 0.3002,-0.81653c0,-0.02001 -0.12408,-0.03602 -0.27618,-0.03602h-0.27618l-0.16411,0.42428c-0.09206,0.23215 -0.16411,0.44029 -0.16411,0.4603c0,0.02001 -0.06404,0.03602 -0.14009,0.03602c-0.07605,0 -0.14009,-0.01601 -0.14009,-0.03602c0,-0.02001 0.07205,-0.22415 0.1601,-0.44829c0.08806,-0.22815 0.1601,-0.41627 0.1601,-0.42428c0,-0.00801 -0.18012,-0.01201 -0.40026,-0.01201zM15.94274,36.38809h-0.94462l0.06404,0.11608c0.06404,0.10807 0.06004,0.12808 -0.12008,0.6124c-0.10407,0.27218 -0.18812,0.50833 -0.18812,0.52434c0,0.01601 0.36824,0.02802 0.81653,0.02802h0.82054l0.07605,-0.21214c0.08405,-0.22014 0.34022,-0.87657 0.38825,-1.00065c0.02802,-0.06404 -0.03202,-0.06804 -0.9126,-0.06804zM17.55579,36.41611c-0.19613,0.07205 -0.32421,0.33222 -0.24416,0.48832c0.03602,0.06404 0.02402,0.10007 -0.07605,0.20013c-0.14009,0.14009 -0.1561,0.3082 -0.04403,0.44829c0.07205,0.08806 0.1601,0.10407 0.48432,0.08405c0.05604,-0.004 0.18012,0.004 0.27218,0.01601c0.20814,0.02802 0.27618,-0.01601 0.20814,-0.14409c-0.03602,-0.06804 -0.03602,-0.10007 0.01201,-0.1521c0.03602,-0.03602 0.07605,-0.12008 0.09206,-0.18412c0.02802,-0.12008 0.00801,-0.12808 -0.18812,-0.04803c-0.10007,0.04403 -0.12008,-0.14409 -0.02802,-0.25617c0.09606,-0.11608 0.09206,-0.3002 -0.00801,-0.40026c-0.08005,-0.08005 -0.33222,-0.10407 -0.48031,-0.05203zM23.35558,13.71728c0.10807,0.13609 0.10807,0.34823 0.004,0.62441c-0.08005,0.21214 -0.34022,0.59239 -0.42428,0.62041c-0.02402,0.00801 -0.08806,-0.07205 -0.13609,-0.17612c-0.16811,-0.35223 -0.10807,-0.9206 0.10807,-1.09271c0.1481,-0.11608 0.34823,-0.10407 0.44829,0.02402zM22.28688,17.34365c0.02402,0.00801 0.14409,0.25617 0.26818,0.55236c0.22014,0.50833 0.22815,0.54436 0.1601,0.59239c-0.20814,0.14409 -0.63642,0.21614 -0.79652,0.12808c-0.10407,-0.05604 -0.16811,-0.28018 -0.13609,-0.48432c0.03602,-0.22815 0.14409,-0.44029 0.32421,-0.64042c0.08005,-0.08806 0.1601,-0.1521 0.18012,-0.1481zM22.56706,36.50817h0.29619c0.16411,0 0.29619,0.01201 0.29619,0.02802c0,0.01601 -0.05604,0.17612 -0.12408,0.36024l-0.12808,0.33222h-0.29219c-0.16411,0 -0.29619,-0.01601 -0.29619,-0.03602c0,-0.02001 0.05604,-0.18412 0.12408,-0.36024zM15.67056,36.74833h0.24816c0.21614,0 0.24016,0.00801 0.21614,0.06804c-0.01601,0.04003 -0.06404,0.16811 -0.10807,0.28018l-0.08405,0.21214h-0.23615c-0.23615,0 -0.24016,-0.004 -0.21614,-0.09606c0.01201,-0.05203 0.06004,-0.18012 0.10407,-0.28018zM34.43482,17.34765c0.00801,0.00801 -0.42828,2.46161 -0.96863,5.44756c-0.54035,2.98595 -0.98064,5.44756 -0.98064,5.46757c0,0.02402 -0.53235,0.04003 -1.48497,0.04003c-1.17277,0 -1.48097,-0.01201 -1.46496,-0.05203c0.01201,-0.02402 1.11273,-2.49363 2.4496,-5.48358c1.34088,-2.98595 2.4416,-5.42755 2.4496,-5.41954z" fill="none" stroke-width="0"></path><path d="M9.1503,9.49052h2.40957l-0.20814,0.22815c-0.66043,0.72047 -0.98464,1.537 -1.26082,3.18208c-0.10407,0.6084 -0.26417,0.55636 1.58904,0.54436l1.56903,-0.01201l0.16811,-0.94061c0.22415,-1.24081 0.34823,-1.56102 0.65643,-1.72913c0.18812,-0.10407 0.56837,-0.08405 0.68445,0.03602c0.12408,0.12008 0.16411,0.37625 0.12008,0.71647c-0.12408,0.86857 -0.68445,1.78917 -2.70177,4.41889c-1.00065,1.30886 -2.98595,3.84251 -3.00596,3.84251c-0.01201,0 -0.02001,-2.31351 -0.02001,-5.14336zM28.26278,9.49052h10.58692v0.20013h-5.34349l-4.85117,9.35811l-4.84717,9.35411l-0.43629,2.41758c-0.40426,2.22545 -0.43228,2.42158 -0.37625,2.48963c0.06404,0.07605 0.18812,0.07605 4.31082,0.08806l4.24277,0.00801l-0.43228,2.40157c-0.34022,1.86122 -0.42828,2.42158 -0.39626,2.48963l0.04403,0.09206h7.39683l0.06404,-0.37224c0.03602,-0.20013 0.19213,-1.04468 0.34422,-1.86922l0.27218,-1.50098l0.004,1.92926l0.004,1.93326h-29.6994v-16.13054h6.91652l0.02402,-0.11207c0.08405,-0.41227 0.38425,-2.18543 0.38425,-2.26548c0,-0.05203 -0.02402,-0.11608 -0.05203,-0.14009c-0.04003,-0.02802 -0.58438,-0.04803 -1.76916,-0.05203l-1.70912,-0.01201l0.67644,-0.80052c1.8292,-2.16541 3.10603,-3.78647 3.57033,-4.53496c1.13274,-1.82119 1.36889,-3.56233 0.64042,-4.69106c-0.08405,-0.13209 -0.1561,-0.25216 -0.1561,-0.26017c0,-0.01201 4.76311,-0.02001 10.58692,-0.02001zM22.85925,12.3724c-1.32487,0.21214 -2.23346,1.20479 -2.23746,2.46161c-0.004,0.42027 0.09606,0.72447 0.34823,1.05269c0.10407,0.14409 0.18812,0.26017 0.18012,0.26818c-0.00801,0.004 -0.14409,0.07605 -0.3082,0.16411c-0.43629,0.22415 -0.73248,0.51634 -0.9246,0.9126c-0.54035,1.09271 -0.27218,2.38156 0.57638,2.76981c0.65243,0.29619 1.54901,0.18412 2.52565,-0.32021c0.17612,-0.08806 0.33222,-0.16811 0.34422,-0.17612c0.01201,-0.004 0.06404,0.09606 0.11207,0.23215l0.08806,0.24016h1.04068c0.86056,0 1.03668,-0.00801 1.03668,-0.05604c0,-0.03202 -0.10807,-0.36824 -0.24016,-0.74849c-0.13209,-0.37625 -0.23615,-0.69245 -0.23215,-0.69645c0.00801,-0.004 0.12808,-0.07205 0.27218,-0.1521c0.42027,-0.23215 0.38825,-0.18012 0.52034,-0.90859c0.12008,-0.67244 0.14009,-0.84055 0.09606,-0.84055c-0.01601,0 -0.3122,0.16411 -0.66443,0.36424c-0.34823,0.20413 -0.64042,0.36024 -0.64842,0.35223c-0.01201,-0.00801 -0.12808,-0.3082 -0.26417,-0.66844l-0.24816,-0.64842l0.24816,-0.27218c0.50433,-0.54836 0.74048,-1.11273 0.74048,-1.76916c0,-0.34422 -0.01201,-0.40827 -0.12408,-0.64442c-0.21614,-0.44829 -0.51233,-0.70446 -1.00466,-0.86056c-0.24016,-0.07205 -0.9166,-0.10407 -1.23281,-0.05604zM19.06478,35.77169c-0.01201,0.01601 0.02001,0.08405 0.07205,0.1561c0.05604,0.06804 0.10007,0.1481 0.10007,0.16811c0,0.02402 -0.12408,0.36824 -0.28018,0.7685c-0.1521,0.40026 -0.28018,0.74449 -0.28018,0.7685c0,0.02402 0.16411,0.03602 0.42828,0.02802l0.42428,-0.01201l0.12408,-0.32821l0.12408,-0.33222h0.72047c0.39626,0 0.74048,-0.01601 0.7645,-0.03202c0.04403,-0.03202 0.17612,-0.36024 0.17612,-0.44029c0,-0.03602 -0.18412,-0.04803 -0.72447,-0.04803c-0.64442,0 -0.72047,-0.00801 -0.70046,-0.06404c0.01201,-0.03602 0.02402,-0.08005 0.02402,-0.10007c0,-0.02001 0.32421,-0.03602 0.75649,-0.03602h0.75649l0.08806,-0.21614c0.04803,-0.12008 0.07605,-0.24016 0.06004,-0.26017c-0.02802,-0.04803 -2.58969,-0.06404 -2.63372,-0.02001zM11.30771,36.06788c-0.88458,0 -1.11673,0.01201 -1.09271,0.04803c0.01601,0.02802 0.08806,0.12808 0.16411,0.22014c0.12808,0.1601 0.1521,0.17211 0.33622,0.17211c0.10807,0 0.19613,0.004 0.19613,0.00801c0,0.00801 -0.10007,0.26417 -0.21614,0.57237l-0.22014,0.56037l0.32421,0.01201c0.18012,0.00801 0.34422,0.004 0.37224,-0.004c0.02402,-0.01201 0.14009,-0.27218 0.25617,-0.58438l0.21614,-0.56437h0.63241l0.07605,-0.18412c0.04403,-0.10007 0.08005,-0.20013 0.08005,-0.22014c0,-0.02001 -0.46831,-0.03602 -1.12473,-0.03602zM22.90328,36.06788c-1.16476,0 -1.18477,0 -1.14475,0.07605c0.02001,0.04403 0.06004,0.09206 0.08005,0.10407c0.07205,0.04403 0.04403,0.1481 -0.20013,0.78051c-0.13209,0.34022 -0.24016,0.62041 -0.24016,0.62841c0,0.00801 0.4643,0.01201 1.03668,0.01201h1.03267l0.29219,-0.75249c0.1561,-0.41227 0.29619,-0.7725 0.3082,-0.80052c0.01601,-0.03602 -0.23215,-0.04803 -1.16476,-0.04803zM24.66043,36.06788c-0.48432,0 -0.50033,0.004 -0.4603,0.07605c0.02001,0.04403 0.06004,0.09206 0.08005,0.10407c0.07205,0.04403 0.04403,0.1481 -0.20013,0.78051c-0.13209,0.34022 -0.24016,0.62041 -0.24016,0.62841c0,0.00801 0.4643,0.01201 1.03668,0.01201h1.03267l0.29219,-0.75249c0.1561,-0.41227 0.29619,-0.7725 0.3082,-0.80052c0.01601,-0.04003 -0.06004,-0.04803 -0.34823,-0.04003l-0.37224,0.01201l-0.22014,0.56837l-0.22014,0.57237h-0.29219c-0.16411,0 -0.29619,-0.01601 -0.29619,-0.03602c0,-0.02001 0.09206,-0.27218 0.20013,-0.56037c0.11207,-0.28819 0.20013,-0.53235 0.20013,-0.54436c0,-0.01201 -0.22415,-0.02001 -0.50033,-0.02001zM27.78247,36.06788c-1.16076,0 -1.18077,0 -1.14075,0.07605c0.02001,0.04403 0.06004,0.09206 0.08005,0.10407c0.07205,0.04403 0.04403,0.1481 -0.20013,0.78051c-0.13209,0.34022 -0.24016,0.62441 -0.24016,0.62841c0,0.00801 0.16411,0.00801 0.36424,0.004l0.36024,-0.01201l0.10807,-0.26017l0.11207,-0.26017l0.18412,-0.01201l0.18812,-0.01201l0.08405,0.28018l0.08405,0.28419h0.35623c0.20013,0 0.36024,-0.01201 0.36024,-0.03202c0,-0.01601 -0.02802,-0.11608 -0.06004,-0.22415c-0.08005,-0.26818 -0.07605,-0.29619 0.04403,-0.3122c0.09606,-0.01201 0.12408,-0.06004 0.3002,-0.51233c0.10807,-0.27618 0.19613,-0.50433 0.19613,-0.51233c0,-0.004 -0.53235,-0.00801 -1.18077,-0.00801zM12.79268,36.38809h-0.39626l0.06404,0.11608c0.06404,0.10807 0.06004,0.12808 -0.12008,0.6124c-0.10407,0.27218 -0.18812,0.50833 -0.18812,0.52434c0,0.01601 0.51634,0.02402 1.14475,0.02001l1.14475,-0.01201l0.21614,-0.56037c0.12008,-0.3082 0.22815,-0.59239 0.24016,-0.63241c0.02001,-0.06404 -0.004,-0.07205 -0.26818,-0.06004l-0.29219,0.01201l-0.33622,0.88058l-0.1481,0.01201c-0.13209,0.01201 -0.1481,0.004 -0.12008,-0.06004c0.13609,-0.34422 0.3002,-0.78451 0.3002,-0.81653c0,-0.02001 -0.12408,-0.03602 -0.27618,-0.03602h-0.27618l-0.16411,0.42428c-0.09206,0.23215 -0.16411,0.44029 -0.16411,0.4603c0,0.02001 -0.06404,0.03602 -0.14009,0.03602c-0.07605,0 -0.14009,-0.01601 -0.14009,-0.03602c0,-0.02001 0.07205,-0.22415 0.1601,-0.44829c0.08806,-0.22815 0.1601,-0.41627 0.1601,-0.42428c0,-0.00801 -0.18012,-0.01201 -0.40026,-0.01201zM15.94274,36.38809h-0.94462l0.06404,0.11608c0.06404,0.10807 0.06004,0.12808 -0.12008,0.6124c-0.10407,0.27218 -0.18812,0.50833 -0.18812,0.52434c0,0.01601 0.36824,0.02802 0.81653,0.02802h0.82054l0.07605,-0.21214c0.08405,-0.22014 0.34022,-0.87657 0.38825,-1.00065c0.02802,-0.06404 -0.03202,-0.06804 -0.9126,-0.06804zM17.55579,36.41611c-0.19613,0.07205 -0.32421,0.33222 -0.24416,0.48832c0.03602,0.06404 0.02402,0.10007 -0.07605,0.20013c-0.14009,0.14009 -0.1561,0.3082 -0.04403,0.44829c0.07205,0.08806 0.1601,0.10407 0.48432,0.08405c0.05604,-0.004 0.18012,0.004 0.27218,0.01601c0.20814,0.02802 0.27618,-0.01601 0.20814,-0.14409c-0.03602,-0.06804 -0.03602,-0.10007 0.01201,-0.1521c0.03602,-0.03602 0.07605,-0.12008 0.09206,-0.18412c0.02802,-0.12008 0.00801,-0.12808 -0.18812,-0.04803c-0.10007,0.04403 -0.12008,-0.14409 -0.02802,-0.25617c0.09606,-0.11608 0.09206,-0.3002 -0.00801,-0.40026c-0.08005,-0.08005 -0.33222,-0.10407 -0.48031,-0.05203zM23.35558,13.71728c0.10807,0.13609 0.10807,0.34823 0.004,0.62441c-0.08005,0.21214 -0.34022,0.59239 -0.42428,0.62041c-0.02402,0.00801 -0.08806,-0.07205 -0.13609,-0.17612c-0.16811,-0.35223 -0.10807,-0.9206 0.10807,-1.09271c0.1481,-0.11608 0.34823,-0.10407 0.44829,0.02402zM22.28688,17.34365c0.02402,0.00801 0.14409,0.25617 0.26818,0.55236c0.22014,0.50833 0.22815,0.54436 0.1601,0.59239c-0.20814,0.14409 -0.63642,0.21614 -0.79652,0.12808c-0.10407,-0.05604 -0.16811,-0.28018 -0.13609,-0.48432c0.03602,-0.22815 0.14409,-0.44029 0.32421,-0.64042c0.08005,-0.08806 0.1601,-0.1521 0.18012,-0.1481zM22.56706,36.50817h0.29619c0.16411,0 0.29619,0.01201 0.29619,0.02802c0,0.01601 -0.05604,0.17612 -0.12408,0.36024l-0.12808,0.33222h-0.29219c-0.16411,0 -0.29619,-0.01601 -0.29619,-0.03602c0,-0.02001 0.05604,-0.18412 0.12408,-0.36024zM15.67056,36.74833h0.24816c0.21614,0 0.24016,0.00801 0.21614,0.06804c-0.01601,0.04003 -0.06404,0.16811 -0.10807,0.28018l-0.08405,0.21214h-0.23615c-0.23615,0 -0.24016,-0.004 -0.21614,-0.09606c0.01201,-0.05203 0.06004,-0.18012 0.10407,-0.28018zM34.43482,17.34765c0.00801,0.00801 -0.42828,2.46161 -0.96863,5.44756c-0.54035,2.98595 -0.98064,5.44756 -0.98064,5.46757c0,0.02402 -0.53235,0.04003 -1.48497,0.04003c-1.17277,0 -1.48097,-0.01201 -1.46496,-0.05203c0.01201,-0.02402 1.11273,-2.49363 2.4496,-5.48358c1.34088,-2.98595 2.4416,-5.42755 2.4496,-5.41954z" fill="#ffffff" stroke-width="0"></path><path d="M2,24c0,-12.15026 9.84974,-22 22,-22c12.15026,0 22,9.84974 22,22c0,12.15026 -9.84974,22 -22,22c-12.15026,0 -22,-9.84974 -22,-22z" id="base 1 1 1" fill="none" stroke-width="1"></path><g fill="#000000" stroke-width="1" font-family="Roboto, sans-serif" font-weight="normal" font-size="14" text-anchor="start"><g></g></g><rect x="2" y="2" width="44" height="22" fill="none" stroke-width="1"></rect><path d="M2,24v-22h44v22z" fill="none" stroke-width="1"></path><path d="M2,24v-22h44v22z" fill="none" stroke-width="1"></path><path d="M2,24v-22h44v22z" fill="none" stroke-width="1"></path><path d="M2,24v-22h44v22z" fill="none" stroke-width="1"></path></g></svg>