<?xml version="1.0" standalone="no"?>
<!DOCTYPE svg PUBLIC "-//W3C//DTD SVG 20010904//EN"
 "http://www.w3.org/TR/2001/REC-SVG-20010904/DTD/svg10.dtd">
<svg version="1.0" xmlns="http://www.w3.org/2000/svg"
 width="742.000000pt" height="725.000000pt" viewBox="0 0 742.000000 725.000000"
 preserveAspectRatio="xMidYMid meet">
<metadata>
Created by potrace 1.14, written by Peter Selinger 2001-2017
</metadata>
<g transform="translate(0.000000,725.000000) scale(0.100000,-0.100000)"
fill="#000000" stroke="none">
<path d="M0 5965 c0 -707 2 -1285 5 -1285 5 0 501 633 751 960 504 657 644
887 675 1104 11 85 1 149 -30 179 -29 30 -124 35 -171 9 -77 -42 -108 -122
-164 -432 l-42 -235 -392 -3 c-463 -3 -423 -16 -397 136 69 411 150 615 315
795 l52 57 -301 0 -301 0 0 -1285z"/>
<path d="M2130 7245 c0 -2 18 -32 39 -65 182 -282 123 -717 -160 -1172 -116
-187 -435 -592 -892 -1133 l-169 -200 427 -3 c296 -1 432 -6 442 -13 7 -6 13
-22 13 -35 0 -20 -75 -463 -96 -566 l-6 -28 -864 0 -864 0 0 -2015 0 -2015
3710 0 3710 0 -1 483 -1 482 -68 -375 c-38 -206 -77 -417 -86 -467 l-16 -93
-924 0 -924 0 -11 23 c-8 17 14 157 99 622 l108 600 -1060 2 c-1030 3 -1061 3
-1077 22 -14 17 -7 66 94 622 l109 604 1211 2337 1212 2338 668 0 667 0 0 25
0 25 -2645 0 c-1455 0 -2645 -2 -2645 -5z m1603 -729 c123 -39 197 -103 251
-215 28 -59 31 -75 31 -161 0 -164 -59 -305 -185 -442 l-62 -68 62 -162 c34
-90 63 -165 66 -167 2 -2 75 37 162 88 88 50 162 91 166 91 11 0 6 -42 -24
-210 -33 -182 -25 -169 -130 -227 -36 -20 -66 -37 -68 -38 -1 -1 25 -80 58
-174 33 -95 60 -179 60 -187 0 -12 -44 -14 -259 -14 l-260 0 -22 60 c-12 34
-25 59 -28 58 -3 -2 -42 -22 -86 -44 -244 -126 -468 -154 -631 -80 -212 97
-279 419 -144 692 48 99 122 172 231 228 41 22 75 40 77 41 2 2 -19 31 -45 67
-63 82 -88 158 -87 263 1 314 228 562 559 615 79 12 248 4 308 -14z m-598
-5837 c4 -5 -3 -35 -15 -65 l-22 -54 -189 0 c-108 0 -189 -4 -189 -9 0 -5 -3
-16 -6 -25 -5 -14 14 -16 175 -16 135 0 181 -3 181 -12 0 -20 -33 -102 -44
-110 -6 -4 -92 -8 -191 -8 l-180 0 -31 -83 -31 -82 -106 -3 c-66 -2 -107 1
-107 7 0 6 32 92 70 192 39 100 70 186 70 192 0 5 -11 25 -25 42 -13 18 -21
35 -18 39 11 11 651 7 658 -5z m-2315 -78 c0 -5 -9 -30 -20 -55 l-19 -46 -79
0 -79 0 -54 -141 c-29 -78 -58 -143 -64 -146 -7 -2 -48 -3 -93 -1 l-81 3 55
140 c29 77 54 141 54 143 0 1 -22 2 -49 2 -46 0 -52 3 -84 43 -19 23 -37 48
-41 55 -6 9 52 12 273 12 164 0 281 -4 281 -9z m2907 -3 c-3 -7 -38 -97 -77
-200 l-73 -188 -258 0 c-143 0 -259 1 -259 3 0 2 27 72 60 157 61 158 68 184
50 195 -5 3 -15 15 -20 26 -10 19 -5 19 286 19 233 0 295 -3 291 -12z m273 7
c0 -3 -22 -64 -50 -136 -27 -72 -50 -135 -50 -140 0 -5 33 -9 74 -9 l73 0 55
143 55 142 93 3 c72 2 91 0 87 -10 -3 -7 -38 -97 -77 -200 l-73 -188 -258 0
c-143 0 -259 1 -259 3 0 2 27 72 60 157 61 158 68 184 50 195 -5 3 -15 15 -20
26 -10 18 -6 19 115 19 69 0 125 -2 125 -5z m950 3 c0 -2 -22 -59 -49 -128
-44 -113 -51 -125 -75 -128 -30 -4 -31 -11 -11 -78 8 -27 15 -52 15 -56 0 -5
-40 -8 -90 -8 l-89 0 -21 71 -21 70 -47 -3 -46 -3 -28 -65 -27 -65 -90 -3
c-50 -1 -91 -1 -91 1 0 1 27 72 60 157 61 158 68 184 50 195 -5 3 -15 15 -20
26 -10 19 -5 19 285 19 162 0 295 -1 295 -2z m-3940 -81 c0 -2 -18 -49 -40
-106 -22 -56 -40 -107 -40 -112 0 -5 16 -9 35 -9 19 0 35 4 35 9 0 5 18 57 41
115 l41 106 69 0 c38 0 69 -4 69 -9 0 -8 -41 -118 -75 -204 -7 -16 -3 -18 30
-15 l37 3 42 110 42 110 73 3 c66 3 72 1 67 -15 -3 -10 -30 -81 -60 -158 l-54
-140 -286 -3 c-157 -1 -286 1 -286 5 0 4 21 63 47 131 45 121 46 126 30 153
l-16 29 99 0 c55 0 100 -1 100 -3z m915 -14 c-12 -31 -76 -195 -97 -250 l-19
-53 -205 0 c-112 0 -204 3 -204 7 0 4 21 63 47 131 45 121 46 126 30 153 l-16
29 236 0 c220 0 235 -1 228 -17z m295 -3 c25 -25 26 -71 2 -100 -23 -28 -18
-75 7 -64 49 20 54 18 47 -12 -4 -16 -14 -37 -23 -46 -12 -13 -12 -21 -3 -38
17 -32 0 -43 -52 -36 -23 3 -54 5 -68 4 -81 -5 -103 -1 -121 21 -28 35 -24 77
11 112 25 25 28 34 19 50 -20 39 12 104 61 122 37 13 100 7 120 -13z"/>
<path d="M3437 6200 c-54 -43 -69 -185 -27 -273 12 -26 28 -46 34 -44 21 7 86
102 106 155 26 69 26 122 -1 156 -25 32 -75 35 -112 6z"/>
<path d="M3237 5251 c-45 -50 -72 -103 -81 -160 -8 -51 8 -107 34 -121 40 -22
147 -4 199 32 17 12 15 21 -40 148 -31 74 -61 136 -67 138 -5 1 -25 -15 -45
-37z"/>
<path d="M3321 419 c-17 -44 -31 -85 -31 -90 0 -5 33 -9 74 -9 l73 0 32 83
c17 46 31 86 31 90 0 4 -33 7 -74 7 l-74 0 -31 -81z"/>
<path d="M1610 394 c-11 -25 -23 -57 -26 -70 -6 -23 -5 -24 54 -24 l59 0 21
53 c11 28 23 60 27 70 6 15 0 17 -54 17 l-62 0 -19 -46z"/>
<path d="M5705 3933 c-334 -747 -609 -1364 -612 -1370 -4 -10 73 -13 366 -13
238 0 371 4 371 10 0 5 110 620 245 1366 135 746 244 1359 242 1361 -2 2 -277
-608 -612 -1354z"/>
</g>
</svg>
